{"title":"Breaking Bad S05E10 - 720p x264 [MKV,AC3,5.1] Ehhhh","uid":8829482,"size":493255835,"categoryP":"video","categoryS":"hd___tv_shows","magnet":"?xt=urn:btih:451f78dc3d40cb36a871420ab318aa661fb3bbf2&amp;dn=Breaking+Bad+S05E10+-+720p+x264+%5BMKV%2CAC3%2C5.1%5D+Ehhhh&amp;tr=udp%3A%2F%2Ftracker.openbittorrent.com%3A80&amp;tr=udp%3A%2F%2Fopen.demonii.com%3A1337&amp;tr=udp%3A%2F%2Ftracker.coppersurfer.tk%3A6969&amp;tr=udp%3A%2F%2Fexodus.desync.com%3A6969","seeders":1,"leechers":0,"uploader":"Ehhhhtozebec","files":-1,"time":1376929998,"description":"Buried\nEpisode 10\n8/18/ 13\n\nSkyler's past catches up with her while Walt needs to cover his own tracks. Jesse continues to struggle with guilt.\n\nFormat : Matroska\nFormat version : Version 4 / Version 2\nFile size : 470 MiB\nDuration : 47mn 8s\nOverall bit rate : 1 393 Kbps\nEncoded date : UTC 2013-08-19 11:19:09\nWriting application : mkvmerge v6.2.0 ('Promised Land') built on Apr 28 2013 12:22:01\nWriting library : libebml v1.3.0 + libmatroska v1.4.0\n\nVideo\nID : 1\nFormat : AVC\nFormat/Info : Advanced Video Codec\nFormat profile : &lt;a class=&quot;__cf_email__&quot; href=&quot;/cdn-cgi/l/email-protection&quot; data-cfemail=&quot;1058797778505c243e21&quot;&gt;[email&amp;#160;protected]&lt;/a&gt;&lt;script cf-hash='f9e31' type=&quot;text/javascript&quot;&gt;\n/* &lt;![CDATA[ */!function(){try{var t=&quot;currentScript&quot;in document?document.currentScript:function(){for(var t=document.getElementsByTagName(&quot;script&quot;),e=t.length;e--;)if(t[e].getAttribute(&quot;cf-hash&quot;))return t[e]}();if(t&amp;&amp;t.previousSibling){var e,r,n,i,c=t.previousSibling,a=c.getAttribute(&quot;data-cfemail&quot;);if(a){for(e=&quot;&quot;,r=parseInt(a.substr(0,2),16),n=2;a.length-n;n+=2)i=parseInt(a.substr(n,2),16)^r,e+=String.fromCharCode(i);e=document.createTextNode(e),c.parentNode.replaceChild(e,c)}}}catch(u){}}();/* ]]&gt; */&lt;/script&gt;\nFormat settings, CABAC : Yes\nFormat settings, ReFrames : 14 frames\nCodec ID : V_MPEG4/ISO/AVC\nDuration : 47mn 8s\nBit rate : 1 010 Kbps\nWidth : 1 280 pixels\nHeight : 720 pixels\nDisplay aspect ratio : 16:9\nFrame rate mode : Constant\nFrame rate : 23.976 fps\nColor space : YUV\nChroma subsampling : 4:2:0\nBit depth : 8 bits\nScan type : Progressive\nBits/(Pixel*Frame) : 0.046\nStream size : 331 MiB (70%)\nWriting library : x264 core 136 r2348+704+51 d1baef6 tMod [8-bit@all X86]\n\nAudio\nID : 2\nFormat : AC-3\nFormat/Info : Audio Coding 3\nMode extension : CM (complete main)\nFormat settings, Endianness : Big\nCodec ID : A_AC3\nDuration : 47mn 8s\nBit rate mode : Constant\nBit rate : 384 Kbps\nChannel(s) : 6 channels\nChannel positions : Front: L C R, Side: L R, LFE\nSampling rate : 48.0 KHz\nBit depth : 16 bits\nCompression mode : Lossy\nStream size : 129 MiB (28%)\nDefault : Yes\nForced : No ","torrent":{"xt":"urn:btih:451f78dc3d40cb36a871420ab318aa661fb3bbf2","amp;dn":"Breaking+Bad+S05E10+-+720p+x264+%5BMKV%2CAC3%2C5.1%5D+Ehhhh","amp;tr":["udp%3A%2F%2Ftracker.openbittorrent.com%3A80","udp%3A%2F%2Fopen.demonii.com%3A1337","udp%3A%2F%2Ftracker.coppersurfer.tk%3A6969","udp%3A%2F%2Fexodus.desync.com%3A6969"],"infoHash":"451f78dc3d40cb36a871420ab318aa661fb3bbf2","infoHashBuffer":{"type":"Buffer","data":[69,31,120,220,61,64,203,54,168,113,66,10,179,24,170,102,31,179,187,242]},"announce":[],"urlList":[]}}